<?xml version="1.0"?>
<svg xmlns="http://www.w3.org/2000/svg" xmlns:xlink="http://www.w3.org/1999/xlink" xmlns:svgjs="http://svgjs.com/svgjs" version="1.1" width="512" height="512" x="0" y="0" viewBox="0 0 512 512" style="enable-background:new 0 0 512 512" xml:space="preserve" class=""><g>
<path xmlns="http://www.w3.org/2000/svg" style="" d="M437.019,74.98C388.667,26.629,324.38,0,256,0C187.619,0,123.332,26.629,74.979,74.98  C26.628,123.332,0,187.62,0,256s26.628,132.668,74.979,181.02C123.332,485.371,187.619,512,256,512  c68.38,0,132.667-26.629,181.019-74.98C485.371,388.667,512,324.38,512,256S485.371,123.333,437.019,74.98z" fill="#6ab742" data-original="#ff598b" class=""/>
<path xmlns="http://www.w3.org/2000/svg" style="" d="M437.019,74.98C388.667,26.629,324.38,0,256,0v512c68.38,0,132.667-26.629,181.019-74.98  C485.371,388.667,512,324.38,512,256S485.371,123.333,437.019,74.98z" fill="#6ab742" data-original="#e6293f" class=""/>
<path xmlns="http://www.w3.org/2000/svg" style="" d="M400.886,243.52L208.085,114.986c-4.604-3.07-10.523-3.355-15.399-0.745  c-4.877,2.61-7.922,7.693-7.922,13.226v257.066c0,5.532,3.045,10.615,7.922,13.225c2.218,1.188,4.65,1.775,7.077,1.775  c2.91,0,5.812-0.846,8.321-2.52l192.801-128.532c4.173-2.781,6.68-7.465,6.68-12.48C407.565,250.985,405.059,246.303,400.886,243.52  z" fill="#ffffff" data-original="#c7efff" class=""/>
<path xmlns="http://www.w3.org/2000/svg" style="" d="M400.886,243.52L256,146.93v218.142l144.886-96.59c4.173-2.781,6.68-7.465,6.68-12.48  C407.565,250.985,405.059,246.303,400.886,243.52z" fill="#ffffff" data-original="#91e1ff" class=""/>
<g xmlns="http://www.w3.org/2000/svg">
</g>
<g xmlns="http://www.w3.org/2000/svg">
</g>
<g xmlns="http://www.w3.org/2000/svg">
</g>
<g xmlns="http://www.w3.org/2000/svg">
</g>
<g xmlns="http://www.w3.org/2000/svg">
</g>
<g xmlns="http://www.w3.org/2000/svg">
</g>
<g xmlns="http://www.w3.org/2000/svg">
</g>
<g xmlns="http://www.w3.org/2000/svg">
</g>
<g xmlns="http://www.w3.org/2000/svg">
</g>
<g xmlns="http://www.w3.org/2000/svg">
</g>
<g xmlns="http://www.w3.org/2000/svg">
</g>
<g xmlns="http://www.w3.org/2000/svg">
</g>
<g xmlns="http://www.w3.org/2000/svg">
</g>
<g xmlns="http://www.w3.org/2000/svg">
</g>
<g xmlns="http://www.w3.org/2000/svg">
</g>
</g></svg>
