<svg xmlns="http://www.w3.org/2000/svg" viewBox="0 0 512 512"><defs><style>.cls-1{fill:#2a91ff;}</style></defs><g id="Capa_2" data-name="Capa 2"><g id="Layer_1" data-name="Layer 1"><path class="cls-1" d="M467,0H45A45.06,45.06,0,0,0,0,44.64V467a45.06,45.06,0,0,0,44.41,45H467a45.05,45.05,0,0,0,45-44.87V45A45.05,45.05,0,0,0,467,0Zm15,467a15,15,0,0,1-15,15H45a15,15,0,0,1-15-15V150H482Zm0-347H30V45A15,15,0,0,1,45,30H467a15,15,0,0,1,15,15Z"/><path class="cls-1" d="M261.71,303.58l-120-60A15,15,0,0,0,120,257V377a15,15,0,0,0,21.71,13.42l120-60A15,15,0,0,0,261.71,303.58ZM150,352.73V281.27L221.46,317Z"/><path class="cls-1" d="M315,182H75a15,15,0,0,0-15,15V437a15,15,0,0,0,15,15H315a15,15,0,0,0,15-15V197A15,15,0,0,0,315,182ZM300,422H90V212H300Z"/><path class="cls-1" d="M437,212H377a15,15,0,0,0,0,30h60a15,15,0,0,0,0-30Z"/><path class="cls-1" d="M437,302H377a15,15,0,0,0,0,30h60a15,15,0,0,0,0-30Z"/><path class="cls-1" d="M437,392H377a15,15,0,0,0,0,30h60a15,15,0,0,0,0-30Z"/><circle class="cls-1" cx="437" cy="75" r="15"/><circle class="cls-1" cx="377" cy="75" r="15"/><circle class="cls-1" cx="315" cy="75" r="15"/></g></g></svg>