<svg xmlns="http://www.w3.org/2000/svg" viewBox="0 0 501.9 351.1"><defs><style>.cls-1{fill:#fff;}</style></defs><g id="Capa_2" data-name="Capa 2"><g id="Layer_1" data-name="Layer 1"><path class="cls-1" d="M501.8,194.7c-.6-13.9-14.2-25-40.5-33-20.4-6.1-46.3-9.8-74.3-10.4V44.6a10.81,10.81,0,0,0-1.5-5c-2.8-12.1-16.3-21.9-40.2-29.1C322.8,3.7,293.4,0,262.5,0s-59.9,3.7-82,10.5c-18.1,5.6-39.8,16-39.8,33.9a18.41,18.41,0,0,0,.3,3.3l1.1,45.6a119.66,119.66,0,1,0,53,210.4c18.7,4.4,40.7,6.8,64,7,5.1,27.7,65.1,40.4,121,40.4,30.8,0,59.9-3.8,82-10.7,18.1-5.6,39.8-16.1,39.8-34V196.6A12.1,12.1,0,0,0,501.8,194.7ZM366.1,99.9c0,1.3-4.8,8.2-26.5,14.8-20.3,6.1-48.4,9.7-77,9.7-24.7,0-48.9-2.6-68.1-7.5-.3-.1-.5-.1-.8-.2A115.37,115.37,0,0,0,162.4,99l-.7-28.2a110.79,110.79,0,0,0,21.6,8.3c21.7,6.3,49.8,9.7,79.3,9.7,30.8,0,60.3-3.7,82.8-10.5a119.93,119.93,0,0,0,21.7-8.7V95.8C366,97.2,366.1,98.5,366.1,99.9ZM186.5,29.8c20.2-6.2,47.2-9.7,76-9.7,28.6,0,56.7,3.5,77,9.7C361.2,36.4,366,43.2,366,44.5s-4.9,8.3-26.6,14.8c-20.3,6.1-48.3,9.6-76.9,9.6-27.6,0-53.8-3.2-73.7-9-21.5-6.2-27.5-13-28-15.2,0-.2-.1-.2-.1-.2C160.8,42.6,165.4,36.2,186.5,29.8Zm.3,254.8a99.67,99.67,0,1,1-67.1-173.3,101.85,101.85,0,0,1,29.5,4.4,100.08,100.08,0,0,1,68.2,75.1,104.58,104.58,0,0,1,2,20.1A99.08,99.08,0,0,1,186.8,284.6Zm25.4,2.2a120.75,120.75,0,0,0,19.2-32.9c8.5.7,17.3,1.2,26.5,1.3V257l.6,33.9A312.37,312.37,0,0,1,212.2,286.8ZM238.9,199c5.8.4,11.9.6,18.1.7l.6,35.4c-7-.1-13.9-.4-20.5-.9a122.93,122.93,0,0,0,2.3-23.4C239.4,206.9,239.2,203,238.9,199Zm24.6-19.2h-1c-9.6,0-18.9-.4-27.5-1a118.55,118.55,0,0,0-17.9-37.2,360.16,360.16,0,0,0,45.3,2.9c30.9,0,60.4-3.7,82.9-10.5a126.29,126.29,0,0,0,21.6-8.6v26.2C324,152.8,279.9,161.8,263.5,179.8Zm13.2,15.9a.76.76,0,0,1,.1-.4c.9-2.7,8-9.3,28.7-15.1,19.4-5.5,44.7-8.5,71.3-8.5h1.7c28.6,0,56.6,3.3,77,9.5,21.3,6.4,26.3,13,26.4,14.5v.1c-.1,1.5-5.1,8.4-27.3,15-20.5,6.1-47.5,9.4-76,9.4-27.6,0-53.8-3.2-73.7-8.9-21.5-6.2-27.4-13.1-28-15.2ZM456.3,321.4c-20.2,6.3-47.3,9.8-76.1,9.8s-55.9-3.4-75.9-9.5c-21.1-6.5-25.5-13.2-25.5-14.7v-.2l-.5-29a130.3,130.3,0,0,0,24.9,9.1c21,5.5,47.7,8.6,75.1,8.6,30.9,0,60.2-3.7,82.6-10.5a128.17,128.17,0,0,0,21-8.5v30h.1C482,307.9,477.4,314.8,456.3,321.4Zm25.8-73.6H482c0,1-.6,2.2-.6,3.3,0,1.4-4.7,8.2-26.3,14.8-20.5,6.2-47.8,9.6-76.7,9.6-55.4,0-92.7-12.5-100.5-22.2l-.1-8.4-.4-23a122.7,122.7,0,0,0,21.8,8.4c21.7,6.3,49.8,9.7,79.3,9.7,30.4,0,59.4-3.6,81.7-10.2a114.52,114.52,0,0,0,21.9-8.6Z"/><path class="cls-1" d="M156.1,225a37.8,37.8,0,0,0-36.4-27.5,17.75,17.75,0,1,1,17.8-17.7,10,10,0,0,0,20,0A37.8,37.8,0,0,0,130,143.4v-4.5a10,10,0,1,0-20,0v4.3a37.74,37.74,0,0,0,9.7,74.2A17.75,17.75,0,1,1,102,235.2a10,10,0,0,0-20,0,38,38,0,0,0,28,36.5v8.7a10,10,0,0,0,20,0v-8.8A37.72,37.72,0,0,0,156.1,225Z"/></g></g></svg>