<svg xmlns="http://www.w3.org/2000/svg" viewBox="0 0 511.97 512"><defs><style>.cls-1{fill:#fff;}</style></defs><g id="Capa_2" data-name="Capa 2"><g id="Layer_1" data-name="Layer 1"><path class="cls-1" d="M377.13,144.85a10,10,0,1,1,9.79-8,10.09,10.09,0,0,1-9.79,8Z"/><path class="cls-1" d="M238.58,304.83a55.33,55.33,0,1,0-55.33-55.32A55.39,55.39,0,0,0,238.58,304.83Zm0-90.65a35.33,35.33,0,1,1-35.33,35.33A35.37,35.37,0,0,1,238.58,214.18Z"/><path class="cls-1" d="M459.68,0a52.27,52.27,0,0,0-43.36,81.51L394.83,103A10,10,0,1,0,409,117.14l21.49-21.49A52.29,52.29,0,1,0,459.68,0Zm0,84.59A32.3,32.3,0,1,1,492,52.3,32.33,32.33,0,0,1,459.68,84.59Z"/><path class="cls-1" d="M404.53,371.48a67,67,0,0,0-40.32,13.43l-33.55-33.55a120.48,120.48,0,0,0,0-155.88L359.16,167A10,10,0,1,0,345,152.82L316.5,181.33a120.43,120.43,0,0,0-155.85,0l-52.09-52.08a50.18,50.18,0,1,0-14.14,14.14l52.09,52.09a120.47,120.47,0,0,0,0,155.88L97,400.9A61.35,61.35,0,1,0,111.1,415l49.51-49.52a120.45,120.45,0,0,0,155.93,0l33.6,33.6a67.39,67.39,0,1,0,54.39-27.64ZM36.6,101.58a30.16,30.16,0,1,1,30.15,30.15A30.19,30.19,0,0,1,36.6,101.58Zm202,71.14a100.69,100.69,0,0,1,65.28,177.35V335.86a25.15,25.15,0,0,0-25.11-25.11H198.41a25.15,25.15,0,0,0-25.11,25.11v14.21a100.69,100.69,0,0,1,65.27-177.35ZM61.29,492a41.29,41.29,0,1,1,41.29-41.29A41.33,41.33,0,0,1,61.29,492ZM283.84,363.37a100.86,100.86,0,0,1-90.54,0V335.86a5.13,5.13,0,0,1,5.11-5.11h80.33a5.12,5.12,0,0,1,5.1,5.11v27.51Zm120.69,123A47.42,47.42,0,1,1,452,438.9a47.47,47.47,0,0,1-47.42,47.42Z"/></g></g></svg>