<svg xmlns="http://www.w3.org/2000/svg" viewBox="0 0 490.67 490.67"><defs><style>.cls-1{fill:#fff;}</style></defs><g id="Capa_2" data-name="Capa 2"><g id="Layer_1" data-name="Layer 1"><path class="cls-1" d="M256,394.67v42.66A10.67,10.67,0,0,0,266.67,448H373.33A10.67,10.67,0,0,0,384,437.33V394.67A10.67,10.67,0,0,0,373.33,384H266.67A10.67,10.67,0,0,0,256,394.67Zm21.33,10.66h85.34v21.34H277.33Z"/><path class="cls-1" d="M437.33,0h-384A53.41,53.41,0,0,0,0,53.33v384a53.41,53.41,0,0,0,53.33,53.34h384a53.42,53.42,0,0,0,53.34-53.34v-384A53.41,53.41,0,0,0,437.33,0Zm32,437.33a32,32,0,0,1-32,32h-384a32,32,0,0,1-32-32V106.67h448Zm0-352h-448v-32a32,32,0,0,1,32-32h384a32,32,0,0,1,32,32Z"/><path class="cls-1" d="M53.33,42.67A10.67,10.67,0,1,0,64,53.33,10.66,10.66,0,0,0,53.33,42.67Z"/><path class="cls-1" d="M117.33,448H224a10.67,10.67,0,0,0,10.67-10.67V394.67A10.67,10.67,0,0,0,224,384H117.33a10.67,10.67,0,0,0-10.66,10.67v42.66A10.67,10.67,0,0,0,117.33,448ZM128,405.33h85.33v21.34H128Z"/><path class="cls-1" d="M138.67,42.67a10.67,10.67,0,1,0,10.66,10.66A10.67,10.67,0,0,0,138.67,42.67Z"/><path class="cls-1" d="M96,42.67a10.67,10.67,0,1,0,10.67,10.66A10.67,10.67,0,0,0,96,42.67Z"/><path class="cls-1" d="M162.43,328.36c.26.26.56.43.81.66a118.35,118.35,0,0,0,16.54,13.57c.68.47,1.43.83,2.13,1.3a117.44,117.44,0,0,0,17.92,9.58c.75.32,1.51.54,2.26.83a117.55,117.55,0,0,0,19.86,6c.43.08.85.11,1.26.19a114.39,114.39,0,0,0,44.25,0c.42-.08.85-.11,1.26-.19a116,116,0,0,0,19.86-6c.74-.29,1.51-.51,2.26-.83a115.31,115.31,0,0,0,17.92-9.58c.7-.44,1.45-.83,2.13-1.3A117.69,117.69,0,0,0,327.42,329c.26-.25.56-.42.81-.66,0,0,0-.12.09-.17a117.34,117.34,0,1,0-166,0S162.39,328.32,162.43,328.36ZM303,321.6c-2.24,1.69-4.46,3.39-6.83,4.84-1.92,1.2-4,2.18-6,3.25a99.55,99.55,0,0,1-89.69,0c-2-1.07-4.05-2.05-6-3.25-2.37-1.45-4.59-3.15-6.83-4.84-1.68-1.28-3.28-2.64-4.88-4a68.71,68.71,0,0,1,125.07,0C306.28,319,304.66,320.32,303,321.6ZM213.33,224a32,32,0,1,1,32,32A32,32,0,0,1,213.33,224Zm32-74.67A95.67,95.67,0,0,1,323.16,301.1a91.14,91.14,0,0,0-42.43-37.51,53.35,53.35,0,1,0-70.79,0,91.08,91.08,0,0,0-42.43,37.51,95.08,95.08,0,0,1-18.18-55.75A96.11,96.11,0,0,1,245.33,149.33Z"/></g></g></svg>